<svg xmlns="http://www.w3.org/2000/svg" width="1200" height="900" viewBox="0 0 1200 900">
  <rect width="1200" height="900" fill="#ffffff"/>
  <style>
    text{font-family:Inter,Segoe UI,Arial,sans-serif;fill:#1f2937}.title{font-size:34px;font-weight:700}.sub{font-size:16px;fill:#6b7280}.metric{font-size:28px;font-weight:700}.label{font-size:14px;fill:#4b5563}.cell{font-size:15px;font-weight:600}.axis{font-size:12px;fill:#6b7280}.small{font-size:12px;fill:#6b7280}
  </style>
  <text x="60" y="55" class="title">Global Federated Learning Evaluation</text>
  <text x="60" y="82" class="sub">Portfolio reconstruction from values reported in the final course report</text>

  <g transform="translate(60,115)">
    <rect width="240" height="95" rx="14" fill="#eff6ff" stroke="#bfdbfe"/><text x="20" y="38" class="label">Accuracy</text><text x="20" y="73" class="metric">94.23%</text>
  </g>
  <g transform="translate(320,115)">
    <rect width="240" height="95" rx="14" fill="#f5f3ff" stroke="#ddd6fe"/><text x="20" y="38" class="label">F1 Macro</text><text x="20" y="73" class="metric">0.9424</text>
  </g>
  <g transform="translate(580,115)">
    <rect width="240" height="95" rx="14" fill="#ecfdf5" stroke="#a7f3d0"/><text x="20" y="38" class="label">Log Loss</text><text x="20" y="73" class="metric">0.1522</text>
  </g>
  <g transform="translate(840,115)">
    <rect width="240" height="95" rx="14" fill="#fffbeb" stroke="#fde68a"/><text x="20" y="38" class="label">Test Samples</text><text x="20" y="73" class="metric">2,947</text>
  </g>

  <text x="60" y="265" font-size="22" font-weight="700">Confusion matrix</text>
  <g transform="translate(255,295)">
    <!-- cells: 85 x 70 -->
    <g>
      <rect x="0" y="0" width="85" height="70" fill="#1d4ed8"/><rect x="85" y="0" width="85" height="70" fill="#f8fafc"/><rect x="170" y="0" width="85" height="70" fill="#dbeafe"/><rect x="255" y="0" width="85" height="70" fill="#f8fafc"/><rect x="340" y="0" width="85" height="70" fill="#f8fafc"/><rect x="425" y="0" width="85" height="70" fill="#f8fafc"/>
      <rect x="0" y="70" width="85" height="70" fill="#bfdbfe"/><rect x="85" y="70" width="85" height="70" fill="#2563eb"/><rect x="170" y="70" width="85" height="70" fill="#eff6ff"/><rect x="255" y="70" width="85" height="70" fill="#f8fafc"/><rect x="340" y="70" width="85" height="70" fill="#eff6ff"/><rect x="425" y="70" width="85" height="70" fill="#f8fafc"/>
      <rect x="0" y="140" width="85" height="70" fill="#dbeafe"/><rect x="85" y="140" width="85" height="70" fill="#bfdbfe"/><rect x="170" y="140" width="85" height="70" fill="#3b82f6"/><rect x="255" y="140" width="85" height="70" fill="#f8fafc"/><rect x="340" y="140" width="85" height="70" fill="#f8fafc"/><rect x="425" y="140" width="85" height="70" fill="#f8fafc"/>
      <rect x="0" y="210" width="85" height="70" fill="#f8fafc"/><rect x="85" y="210" width="85" height="70" fill="#dbeafe"/><rect x="170" y="210" width="85" height="70" fill="#f8fafc"/><rect x="255" y="210" width="85" height="70" fill="#2563eb"/><rect x="340" y="210" width="85" height="70" fill="#93c5fd"/><rect x="425" y="210" width="85" height="70" fill="#f8fafc"/>
      <rect x="0" y="280" width="85" height="70" fill="#f8fafc"/><rect x="85" y="280" width="85" height="70" fill="#f8fafc"/><rect x="170" y="280" width="85" height="70" fill="#f8fafc"/><rect x="255" y="280" width="85" height="70" fill="#bfdbfe"/><rect x="340" y="280" width="85" height="70" fill="#1d4ed8"/><rect x="425" y="280" width="85" height="70" fill="#f8fafc"/>
      <rect x="0" y="350" width="85" height="70" fill="#f8fafc"/><rect x="85" y="350" width="85" height="70" fill="#f8fafc"/><rect x="170" y="350" width="85" height="70" fill="#f8fafc"/><rect x="255" y="350" width="85" height="70" fill="#f8fafc"/><rect x="340" y="350" width="85" height="70" fill="#dbeafe"/><rect x="425" y="350" width="85" height="70" fill="#1e40af"/>
    </g>
    <!-- values -->
    <g text-anchor="middle" dominant-baseline="middle">
      <text x="42.5" y="35" class="cell" fill="#fff">492</text><text x="127.5" y="35" class="cell">0</text><text x="212.5" y="35" class="cell">4</text><text x="297.5" y="35" class="cell">0</text><text x="382.5" y="35" class="cell">0</text><text x="467.5" y="35" class="cell">0</text>
      <text x="42.5" y="105" class="cell">29</text><text x="127.5" y="105" class="cell" fill="#fff">440</text><text x="212.5" y="105" class="cell">1</text><text x="297.5" y="105" class="cell">0</text><text x="382.5" y="105" class="cell">1</text><text x="467.5" y="105" class="cell">0</text>
      <text x="42.5" y="175" class="cell">8</text><text x="127.5" y="175" class="cell">25</text><text x="212.5" y="175" class="cell" fill="#fff">387</text><text x="297.5" y="175" class="cell">0</text><text x="382.5" y="175" class="cell">0</text><text x="467.5" y="175" class="cell">0</text>
      <text x="42.5" y="245" class="cell">0</text><text x="127.5" y="245" class="cell">3</text><text x="212.5" y="245" class="cell">0</text><text x="297.5" y="245" class="cell" fill="#fff">430</text><text x="382.5" y="245" class="cell">58</text><text x="467.5" y="245" class="cell">0</text>
      <text x="42.5" y="315" class="cell">0</text><text x="127.5" y="315" class="cell">0</text><text x="212.5" y="315" class="cell">0</text><text x="297.5" y="315" class="cell">27</text><text x="382.5" y="315" class="cell" fill="#fff">505</text><text x="467.5" y="315" class="cell">0</text>
      <text x="42.5" y="385" class="cell">0</text><text x="127.5" y="385" class="cell">0</text><text x="212.5" y="385" class="cell">0</text><text x="297.5" y="385" class="cell">0</text><text x="382.5" y="385" class="cell">14</text><text x="467.5" y="385" class="cell" fill="#fff">523</text>
    </g>
    <!-- row labels -->
    <g text-anchor="end" class="axis"><text x="-12" y="40">WALKING</text><text x="-12" y="110">UPSTAIRS</text><text x="-12" y="180">DOWNSTAIRS</text><text x="-12" y="250">SITTING</text><text x="-12" y="320">STANDING</text><text x="-12" y="390">LAYING</text></g>
    <g text-anchor="middle" class="axis"><text x="42.5" y="445">WALK</text><text x="127.5" y="445">UP</text><text x="212.5" y="445">DOWN</text><text x="297.5" y="445">SIT</text><text x="382.5" y="445">STAND</text><text x="467.5" y="445">LAY</text></g>
  </g>

  <g transform="translate(835,300)">
    <text x="0" y="0" font-size="22" font-weight="700">Accuracy by round</text>
    <line x1="0" y1="310" x2="300" y2="310" stroke="#9ca3af"/><line x1="0" y1="40" x2="0" y2="310" stroke="#9ca3af"/>
    <polyline points="10,282 40,176 70,92 100,82 130,80 160,89 190,63 220,82 250,69 280,76" fill="none" stroke="#7c3aed" stroke-width="4"/>
    <g fill="#7c3aed"><circle cx="10" cy="282" r="5"/><circle cx="40" cy="176" r="5"/><circle cx="70" cy="92" r="5"/><circle cx="100" cy="82" r="5"/><circle cx="130" cy="80" r="5"/><circle cx="160" cy="89" r="5"/><circle cx="190" cy="63" r="5"/><circle cx="220" cy="82" r="5"/><circle cx="250" cy="69" r="5"/><circle cx="280" cy="76" r="5"/></g>
    <text x="0" y="335" class="small">Round 1</text><text x="255" y="335" class="small">Round 10</text>
    <text x="6" y="300" class="small">90.06%</text><text x="195" y="55" class="small">94.01%</text>
    <text x="0" y="380" class="sub">Rapid early improvement, then small oscillation near convergence.</text>
  </g>

  <text x="60" y="855" class="small">Source values: final course report. Visualization reconstructed for the public portfolio; no lab infrastructure identifiers included.</text>
</svg>